<svg xmlns="http://www.w3.org/2000/svg" width="48" height="48" viewBox="0 0 48 48" fill="none"><path d="M24 44C35.0457 44 44 35.0457 44 24C44 12.9543 35.0457 4 24 4C12.9543 4 4 12.9543 4 24C4 35.0457 12.9543 44 24 44Z" stroke="white" stroke-width="3"></path><path d="M18 32C19.7 33.26 21.77 34 24 34C26.23 34 28.3 33.26 30 32" stroke="white" stroke-width="3" stroke-linecap="round"></path><path d="M32 21C32 22.656 31.104 24 30 24C28.896 24 28 22.656 28 21C28 19.344 28.896 18 30 18C31.104 18 32 19.344 32 21Z" fill="white"></path><path d="M18 24C19.1046 24 20 22.6569 20 21C20 19.3431 19.1046 18 18 18C16.8954 18 16 19.3431 16 21C16 22.6569 16.8954 24 18 24Z" fill="white"></path></svg>