<svg xmlns="http://www.w3.org/2000/svg" width="48" height="48" viewBox="0 0 48 48" fill="none"><path d="M24 44C35.0457 44 44 35.0457 44 24C44 12.9543 35.0457 4 24 4C12.9543 4 4 12.9543 4 24C4 35.0457 12.9543 44 24 44Z" stroke="white" stroke-width="3"></path><path d="M28 14C28 15.0609 27.5786 16.0783 26.8284 16.8284C26.0783 17.5786 25.0609 18 24 18C22.9391 18 21.9217 17.5786 21.1716 16.8284C20.4214 16.0783 20 15.0609 20 14C20 12.9391 20.4214 11.9217 21.1716 11.1716C21.9217 10.4214 22.9391 10 24 10C25.0609 10 26.0783 10.4214 26.8284 11.1716C27.5786 11.9217 28 12.9391 28 14Z" stroke="white" stroke-width="3"></path><path d="M36 20C36 20 28.926 23 24 23C19.074 23 12 20 12 20M24 24V26.904M24 26.904C23.9994 28.0549 24.3299 29.1817 24.952 30.15L30 38M24 26.904C24.0006 28.0549 23.6701 29.1817 23.048 30.15L18 38" stroke="white" stroke-width="3" stroke-linecap="round"></path></svg>