<svg xmlns="http://www.w3.org/2000/svg" width="48" height="48" viewBox="0 0 48 48" fill="none"><path d="M24 44C35.046 44 44 35.046 44 24C44 12.954 35.046 4 24 4C12.954 4 4 12.954 4 24C4 27.2 4.752 30.224 6.086 32.906C6.442 33.618 6.56 34.432 6.354 35.202L5.164 39.654C5.04614 40.0946 5.04625 40.5584 5.16431 40.9989C5.28237 41.4395 5.51424 41.8412 5.83663 42.1638C6.15902 42.4864 6.5606 42.7185 7.00105 42.8368C7.44151 42.9552 7.90534 42.9556 8.346 42.838L12.798 41.646C13.5708 41.4508 14.3883 41.5454 15.096 41.912C17.8619 43.2891 20.9102 44.004 24 44Z" stroke="white" stroke-width="3"></path><path d="M24 19L22.928 20.048C23.0677 20.1907 23.2345 20.3041 23.4185 20.3815C23.6026 20.4589 23.8003 20.4988 24 20.4988C24.1997 20.4988 24.3974 20.4589 24.5815 20.3815C24.7655 20.3041 24.9323 20.1907 25.072 20.048L24 19ZM21.03 28.742C19.866 27.754 18.698 26.606 17.832 25.422C16.95 24.212 16.5 23.124 16.5 22.218H13.5C13.5 24.05 14.37 25.766 15.41 27.19C16.468 28.64 17.83 29.958 19.086 31.028L21.03 28.742ZM16.5 22.218C16.5 20.004 17.49 18.84 18.506 18.458C19.542 18.072 21.19 18.278 22.928 20.052L25.072 17.954C22.76 15.594 19.91 14.73 17.456 15.648C14.986 16.572 13.5 19.08 13.5 22.218H16.5ZM28.914 31.03C30.17 29.962 31.532 28.642 32.59 27.194C33.63 25.768 34.5 24.052 34.5 22.22H31.5C31.5 23.126 31.05 24.214 30.168 25.424C29.302 26.61 28.134 27.756 26.972 28.744L28.914 31.03ZM34.5 22.22C34.5 19.08 33.014 16.572 30.544 15.648C28.09 14.73 25.24 15.592 22.928 17.954L25.072 20.054C26.81 18.278 28.46 18.072 29.492 18.458C30.512 18.838 31.5 20.006 31.5 22.22H34.5ZM19.086 31.03C20.646 32.356 21.886 33.49 24 33.49V30.49C23.172 30.49 22.766 30.22 21.03 28.742L19.086 31.03ZM26.972 28.744C25.234 30.222 24.828 30.49 24 30.49V33.49C26.114 33.49 27.356 32.356 28.914 31.03L26.972 28.744Z" fill="white"></path></svg>