<svg xmlns="http://www.w3.org/2000/svg" width="48" height="48" viewBox="0 0 48 48" fill="none"><path fill-rule="evenodd" clip-rule="evenodd" d="M20.44 3.29193C21.5544 2.77051 22.7697 2.50024 24 2.50024C25.2303 2.50024 26.4456 2.77051 27.56 3.29193C31.912 5.32593 35.388 9.13193 37.768 13.5159C40.152 17.9039 41.5 22.9839 41.5 27.7139C41.5 37.5119 33.69 45.4999 24 45.4999C14.31 45.4999 6.5 37.5119 6.5 27.7139C6.5 22.9839 7.848 17.9039 10.232 13.5159C12.612 9.13393 16.088 5.32593 20.44 3.29193ZM22.5 5.71193C22.23 5.79259 21.966 5.89217 21.71 6.00993C18.092 7.69993 15.032 10.9619 12.868 14.9479C10.706 18.9279 9.5 23.5199 9.5 27.7139C9.5 35.3859 15.216 41.6559 22.5 42.4219V5.71193ZM25.5 5.71193V14.3799L30.756 9.12393C29.4464 7.85072 27.9379 6.7996 26.29 6.01193C26.034 5.89417 25.77 5.79459 25.5 5.71393M32.772 11.3499L25.5 18.6219V25.3779L35.408 15.4699L35.132 14.9479C34.4486 13.6833 33.6591 12.479 32.772 11.3479M36.716 18.4059L25.5 29.6199V35.3759L37.94 22.9359L38.034 23.0339C37.7277 21.4556 37.2861 19.9065 36.714 18.4039M38.474 26.6439L25.498 39.6199V42.4199C32.782 41.6539 38.498 35.3839 38.498 27.7119C38.498 27.3586 38.4913 27.0026 38.474 26.6439Z" fill="white"></path></svg>