<svg xmlns="http://www.w3.org/2000/svg" width="48" height="48" viewBox="0 0 48 48" fill="none"><path fill-rule="evenodd" clip-rule="evenodd" d="M5.848 20.412C5.52893 22.036 5.42804 23.6953 5.548 25.346L5.68 25.454C6.12 25.806 6.74 26.274 7.464 26.74C8.978 27.716 10.664 28.5 12 28.5C12.872 28.5 13.928 28.162 15.036 27.604C15.71 27.264 16.354 26.87 16.922 26.484C16.5 25.2805 16.3919 23.9893 16.6078 22.7324C16.8237 21.4755 17.3566 20.2945 18.1561 19.3008C18.9555 18.3072 19.9951 17.5338 21.1766 17.0538C22.3582 16.5738 23.6426 16.403 24.9085 16.5576C26.1744 16.7122 27.38 17.187 28.4113 17.9372C29.4426 18.6874 30.2656 19.6881 30.8025 20.8449C31.3394 22.0017 31.5725 23.2763 31.4796 24.5482C31.3868 25.8202 30.9712 27.0474 30.272 28.114C30.3667 28.1673 30.4667 28.2207 30.572 28.274L30.692 28.34C31.276 28.656 32.026 29.066 32.652 29.574C33.972 29.356 35.324 29.558 36.432 30.26C36.818 29.54 37.378 28.892 38.066 28.384C39.27 27.492 40.8 27.096 42.198 27.344C42.5607 25.3586 42.5979 23.3274 42.308 21.33L38.99 24.25C38.8435 24.3876 38.6708 24.4944 38.4822 24.564C38.2936 24.6335 38.093 24.6645 37.8922 24.655C37.6914 24.6455 37.4946 24.5957 37.3134 24.5087C37.1322 24.4216 36.9704 24.299 36.8375 24.1482C36.7046 23.9973 36.6034 23.8213 36.5399 23.6306C36.4764 23.4399 36.4519 23.2384 36.4678 23.038C36.4837 22.8376 36.5397 22.6424 36.6325 22.4641C36.7253 22.2858 36.853 22.128 37.008 22L40.364 19.044C40.5484 18.8814 40.7701 18.7666 41.0093 18.7097C41.2486 18.6529 41.4981 18.6557 41.736 18.718C41.2784 17.1797 40.6215 15.7079 39.782 14.34L39.062 15.06C38.9237 15.2033 38.7582 15.3177 38.5753 15.3964C38.3923 15.4751 38.1955 15.5165 37.9963 15.5184C37.7971 15.5202 37.5996 15.4823 37.4152 15.407C37.2309 15.3317 37.0633 15.2204 36.9224 15.0796C36.7815 14.9388 36.6701 14.7714 36.5946 14.5871C36.519 14.4028 36.481 14.2053 36.4826 14.0061C36.4843 13.8069 36.5256 13.6101 36.6041 13.4271C36.6826 13.244 36.7968 13.0784 36.94 12.94L37.988 11.892C36.253 9.88365 34.1053 8.27303 31.6913 7.16995C29.2774 6.06687 26.654 5.49728 24 5.5C20.46 5.5 17.152 6.494 14.34 8.22L15.06 8.94C15.325 9.22435 15.4692 9.60044 15.4623 9.98905C15.4555 10.3776 15.2981 10.7484 15.0232 11.0232C14.7484 11.2981 14.3776 11.4555 13.989 11.4623C13.6004 11.4692 13.2243 11.325 12.94 11.06L11.892 10.012C9.86709 11.7674 8.24541 13.9396 7.138 16.38C7.53297 16.3614 7.91928 16.4996 8.21292 16.7644C8.50656 17.0292 8.68377 17.3992 8.706 17.794L8.864 20.618C8.88628 21.0153 8.74982 21.4052 8.48464 21.7018C8.21947 21.9985 7.84729 22.1777 7.45 22.2C7.05271 22.2223 6.66283 22.0858 6.36615 21.8206C6.06947 21.5555 5.89028 21.1833 5.868 20.786L5.848 20.412ZM29.42 31.064L29.05 30.864C28.744 30.7 28.396 30.514 28.056 30.31C26.847 31.0894 25.4385 31.5027 24 31.5C22.9585 31.501 21.9283 31.2844 20.9754 30.8643C20.0224 30.4441 19.1677 29.8296 18.466 29.06C17.846 29.476 17.138 29.906 16.386 30.284C15.102 30.93 13.552 31.5 12 31.5C9.974 31.5 7.906 30.524 6.36 29.586C7.49419 33.1582 9.6855 36.3022 12.6444 38.6026C15.6033 40.903 19.1905 42.2515 22.932 42.47C22.883 41.6199 23.046 40.771 23.4062 39.9995C23.7665 39.2281 24.3128 38.5581 24.996 38.05C25.6694 37.5488 26.4452 37.2026 27.268 37.036C26.688 34.916 27.652 32.55 29.42 31.064ZM2.5 24C2.5 12.126 12.126 2.5 24 2.5C35.874 2.5 45.5 12.126 45.5 24C45.5 26.022 45.22 27.98 44.696 29.84C44.6279 30.0821 44.5 30.3032 44.324 30.4829C44.1481 30.6626 43.9298 30.7952 43.6892 30.8685C43.4486 30.9418 43.1935 30.9534 42.9472 30.9023C42.701 30.8512 42.4715 30.739 42.28 30.576C41.852 30.21 40.842 30.062 39.85 30.796C39.024 31.406 38.758 32.246 38.85 32.796C38.8892 33.0317 38.8716 33.2734 38.7985 33.5009C38.7255 33.7284 38.5991 33.9352 38.43 34.104L38.23 34.306C38.0775 34.4588 37.8938 34.5769 37.6914 34.6522C37.489 34.7275 37.2728 34.7583 37.0575 34.7423C36.8421 34.7264 36.6328 34.6641 36.4437 34.5598C36.2547 34.4555 36.0903 34.3116 35.962 34.138L35.292 33.232C34.702 32.432 33.088 32.064 31.532 33.216C29.972 34.368 29.852 36.02 30.444 36.818L30.814 37.318C31.0282 37.6069 31.1315 37.9631 31.1051 38.3218C31.0787 38.6804 30.9243 39.0177 30.67 39.272L30.298 39.642C30.1041 39.8357 29.8609 39.9727 29.5947 40.0379C29.3285 40.1031 29.0495 40.0942 28.788 40.012C28.27 39.85 27.494 39.932 26.78 40.462C25.806 41.182 25.74 42.478 26.206 43.108C26.3676 43.3266 26.4667 43.5851 26.4928 43.8557C26.5189 44.1263 26.4709 44.3989 26.354 44.6444C26.2371 44.8899 26.0557 45.099 25.8292 45.2493C25.6027 45.3997 25.3396 45.4856 25.068 45.498C24.7901 45.5076 24.512 45.5089 24.234 45.502L24 45.5C12.126 45.5 2.5 35.874 2.5 24ZM20.94 6.94C21.2213 6.6591 21.6025 6.50132 22 6.50132C22.3975 6.50132 22.7787 6.6591 23.06 6.94L25.06 8.94C25.325 9.22435 25.4692 9.60044 25.4624 9.98905C25.4555 10.3776 25.2981 10.7484 25.0232 11.0232C24.7484 11.2981 24.3776 11.4555 23.989 11.4623C23.6004 11.4692 23.2243 11.325 22.94 11.06L20.94 9.06C20.6591 8.77875 20.5013 8.3975 20.5013 8C20.5013 7.6025 20.6591 7.22125 20.94 6.94ZM32.9 8.8C33.0576 8.91819 33.1903 9.06626 33.2907 9.23576C33.3911 9.40526 33.4571 9.59286 33.4849 9.78787C33.5128 9.98287 33.502 10.1815 33.4531 10.3723C33.4042 10.5631 33.3182 10.7424 33.2 10.9L30.2 14.9C30.0818 15.0576 29.9337 15.1903 29.7642 15.2907C29.5947 15.3911 29.4071 15.4571 29.2121 15.4849C29.0171 15.5128 28.8186 15.502 28.6277 15.4531C28.4369 15.4042 28.2576 15.3182 28.1 15.2C27.9424 15.0818 27.8096 14.9337 27.7093 14.7642C27.6089 14.5947 27.5429 14.4071 27.5151 14.2121C27.4872 14.0171 27.498 13.8185 27.5469 13.6277C27.5958 13.4369 27.6818 13.2576 27.8 13.1L30.8 9.1C30.9182 8.94241 31.0663 8.80965 31.2358 8.70929C31.4053 8.60893 31.5929 8.54293 31.7879 8.51508C31.9829 8.48722 32.1815 8.49804 32.3723 8.54693C32.5631 8.59582 32.7424 8.68181 32.9 8.8ZM22.448 13.612C22.5506 13.996 22.4967 14.4051 22.2979 14.7493C22.0992 15.0936 21.7719 15.3449 21.388 15.448L18.656 16.18C18.4634 16.2389 18.2609 16.2584 18.0606 16.2374C17.8603 16.2163 17.6663 16.1552 17.4902 16.0575C17.314 15.9599 17.1593 15.8278 17.0353 15.6691C16.9113 15.5104 16.8206 15.3284 16.7684 15.1338C16.7163 14.9393 16.7039 14.7362 16.7319 14.5368C16.76 14.3374 16.8279 14.1456 16.9316 13.973C17.0353 13.8004 17.1728 13.6504 17.3357 13.532C17.4987 13.4136 17.6838 13.3293 17.88 13.284L20.612 12.552C20.996 12.4494 21.4051 12.5033 21.7493 12.7021C22.0936 12.9008 22.3449 13.2281 22.448 13.612ZM11.794 14.348C12.156 14.1834 12.5686 14.1693 12.941 14.3088C13.3135 14.4483 13.6152 14.73 13.78 15.092L14.95 17.666C15.1043 18.0264 15.1114 18.4328 14.9697 18.7983C14.8281 19.1638 14.549 19.4594 14.1922 19.6217C13.8354 19.784 13.4292 19.8002 13.0606 19.6668C12.692 19.5334 12.3903 19.2611 12.22 18.908L11.048 16.334C10.9666 16.1546 10.9213 15.9609 10.9147 15.7641C10.9081 15.5672 10.9404 15.3709 11.0096 15.1865C11.0789 15.0021 11.1838 14.8331 11.3184 14.6892C11.453 14.5454 11.6146 14.4294 11.794 14.348ZM33.23 16.454C33.6273 16.4355 34.0156 16.5756 34.3096 16.8434C34.6037 17.1112 34.7793 17.4847 34.798 17.882L34.93 20.708C34.9397 21.1 34.7954 21.4801 34.5283 21.7671C34.2611 22.0541 33.8921 22.225 33.5005 22.2433C33.1088 22.2616 32.7255 22.1258 32.4328 21.865C32.14 21.6042 31.9609 21.2392 31.934 20.848L31.802 18.024C31.783 17.6267 31.9225 17.2382 32.1899 16.9437C32.4573 16.6493 32.8327 16.4732 33.23 16.454ZM24 19.5C22.8065 19.5 21.6619 19.9741 20.818 20.818C19.9741 21.6619 19.5 22.8065 19.5 24C19.5 25.1935 19.9741 26.3381 20.818 27.182C21.6619 28.0259 22.8065 28.5 24 28.5C25.1935 28.5 26.3381 28.0259 27.182 27.182C28.0259 26.3381 28.5 25.1935 28.5 24C28.5 22.8065 28.0259 21.6619 27.182 20.818C26.3381 19.9741 25.1935 19.5 24 19.5ZM13.886 21.79C14.2068 22.025 14.4212 22.3779 14.482 22.7709C14.5427 23.164 14.4449 23.5651 14.21 23.886L12.54 26.168C12.3017 26.4801 11.9506 26.6863 11.562 26.7424C11.1735 26.7984 10.7784 26.6999 10.4616 26.468C10.1448 26.236 9.9316 25.8891 9.86774 25.5017C9.80388 25.1143 9.89444 24.7174 10.12 24.396L11.79 22.116C12.0247 21.7948 12.3774 21.5801 12.7705 21.5189C13.1636 21.4578 13.5648 21.5553 13.886 21.79Z" fill="white"></path></svg>