<svg xmlns="http://www.w3.org/2000/svg" width="48" height="48" viewBox="0 0 48 48" fill="none"><path d="M18 24C18 24.5304 17.7893 25.0391 17.4142 25.4142C17.0391 25.7893 16.5304 26 16 26C15.4696 26 14.9609 25.7893 14.5858 25.4142C14.2107 25.0391 14 24.5304 14 24C14 23.4696 14.2107 22.9609 14.5858 22.5858C14.9609 22.2107 15.4696 22 16 22C16.5304 22 17.0391 22.2107 17.4142 22.5858C17.7893 22.9609 18 23.4696 18 24ZM26 24C26 24.5304 25.7893 25.0391 25.4142 25.4142C25.0391 25.7893 24.5304 26 24 26C23.4696 26 22.9609 25.7893 22.5858 25.4142C22.2107 25.0391 22 24.5304 22 24C22 23.4696 22.2107 22.9609 22.5858 22.5858C22.9609 22.2107 23.4696 22 24 22C24.5304 22 25.0391 22.2107 25.4142 22.5858C25.7893 22.9609 26 23.4696 26 24ZM34 24C34 24.5304 33.7893 25.0391 33.4142 25.4142C33.0391 25.7893 32.5304 26 32 26C31.4696 26 30.9609 25.7893 30.5858 25.4142C30.2107 25.0391 30 24.5304 30 24C30 23.4696 30.2107 22.9609 30.5858 22.5858C30.9609 22.2107 31.4696 22 32 22C32.5304 22 33.0391 22.2107 33.4142 22.5858C33.7893 22.9609 34 23.4696 34 24Z" fill="white"></path><path fill-rule="evenodd" clip-rule="evenodd" d="M45.5 24C45.5 12.126 35.874 2.5 24 2.5C12.126 2.5 2.5 12.126 2.5 24C2.5 27.436 3.308 30.69 4.744 33.574C4.958 34.004 5.004 34.444 4.904 34.814L3.714 39.266C2.898 42.314 5.686 45.102 8.734 44.286L13.186 43.094C13.6052 42.9975 14.0451 43.0542 14.426 43.254C17.3997 44.7357 20.6776 45.5047 24 45.5C35.874 45.5 45.5 35.874 45.5 24ZM24 5.5C28.9065 5.5 33.6121 7.4491 37.0815 10.9185C40.5509 14.3879 42.5 19.0935 42.5 24C42.5 28.9065 40.5509 33.6121 37.0815 37.0815C33.6121 40.5509 28.9065 42.5 24 42.5C21.142 42.505 18.3222 41.8442 15.764 40.57C14.7298 40.0404 13.5375 39.9074 12.412 40.196L7.958 41.388C7.77149 41.4378 7.57516 41.4376 7.38875 41.3875C7.20233 41.3373 7.03239 41.239 6.89599 41.1024C6.7596 40.9658 6.66155 40.7957 6.6117 40.6093C6.56185 40.4228 6.56195 40.2264 6.612 40.04L7.804 35.588C8.09264 34.4625 7.95961 33.2702 7.43 32.236C6.15577 29.6778 5.49498 26.858 5.5 24C5.5 19.0935 7.4491 14.3879 10.9185 10.9185C14.3879 7.4491 19.0935 5.5 24 5.5Z" fill="white"></path></svg>