<svg xmlns="http://www.w3.org/2000/svg" width="48" height="48" viewBox="0 0 48 48" fill="none"><path fill-rule="evenodd" clip-rule="evenodd" d="M19.974 4.22194C20.52 3.67586 21.1682 3.24269 21.8817 2.94716C22.5951 2.65162 23.3598 2.49951 24.132 2.49951C24.9042 2.49951 25.6689 2.65162 26.3823 2.94716C27.0957 3.24269 27.744 3.67586 28.29 4.22194L43.778 19.7099C44.3409 20.2709 44.7839 20.9405 45.0799 21.678C45.3759 22.4155 45.5189 23.2055 45.5 23.9999C45.5003 25.0023 45.2409 25.9876 44.7469 26.8599C44.253 27.7321 43.5414 28.4614 42.6817 28.9767C41.8219 29.492 40.8433 29.7757 39.8412 29.8001C38.8391 29.8245 37.8478 29.5888 36.964 29.1159C36.4098 28.8327 35.9031 28.465 35.462 28.0259L28.778 21.3419L27.192 22.9299C27.0821 23.0397 27.0124 23.1833 26.9943 23.3376C26.9761 23.4918 27.0106 23.6477 27.092 23.7799L28.384 25.8799C29.858 28.2759 26.998 30.9779 24.69 29.3679L15.454 22.9319L25.342 37.1199C26.962 39.4439 24.216 42.3139 21.822 40.7939L9.59 33.0259L10.89 35.7679C11.556 37.1759 11.27 38.8519 10.166 39.9559L5.06 45.0599C4.77565 45.3249 4.39956 45.4691 4.01095 45.4623C3.62235 45.4554 3.25158 45.298 2.97675 45.0232C2.70193 44.7484 2.5445 44.3776 2.53765 43.989C2.53079 43.6004 2.67504 43.2243 2.94 42.9399L8.044 37.8339C8.14494 37.7342 8.21213 37.6053 8.23616 37.4654C8.26019 37.3256 8.23985 37.1817 8.178 37.0539L6.278 33.0439L7.602 32.4179L6.28 33.0439C5.166 30.6939 7.82 28.3479 10.016 29.7439L21.728 37.1799L11.696 22.7859C10.04 20.4099 12.932 17.5179 15.31 19.1739L24.81 25.7939L24.536 25.3539C24.1008 24.6469 23.9168 23.8137 24.0137 22.9892C24.1106 22.1646 24.4828 21.3968 25.07 20.8099L26.658 19.2219L19.974 12.5379C19.4279 11.9919 18.9948 11.3437 18.6992 10.6303C18.4037 9.91682 18.2516 9.15216 18.2516 8.37994C18.2516 7.60771 18.4037 6.84305 18.6992 6.12962C18.9948 5.41619 19.4279 4.76795 19.974 4.22194ZM29.84 18.1599L34.114 22.4339C34.3868 21.4611 34.9089 20.5764 35.6288 19.8674C36.3486 19.1585 37.2411 18.6499 38.218 18.3919L26.17 6.34394C25.9025 6.07643 25.5849 5.86424 25.2354 5.71947C24.8859 5.5747 24.5113 5.50018 24.133 5.50018C23.7547 5.50018 23.3801 5.5747 23.0306 5.71947C22.6811 5.86424 22.3635 6.07643 22.096 6.34394C21.5558 6.88418 21.2522 7.61691 21.2522 8.38094C21.2522 8.75924 21.3268 9.13384 21.4715 9.48335C21.6163 9.83286 21.8285 10.1504 22.096 10.4179L29.84 18.1599ZM42.5 23.9259C42.4869 23.4355 42.3452 22.9571 42.0891 22.5386C41.8329 22.1202 41.4713 21.7764 41.0404 21.5417C40.6096 21.307 40.1246 21.1896 39.6341 21.2013C39.1436 21.213 38.6648 21.3534 38.2457 21.6084C37.8265 21.8634 37.4817 22.2241 37.2459 22.6543C37.01 23.0845 36.8913 23.5691 36.9016 24.0597C36.912 24.5502 37.051 25.0294 37.3049 25.4492C37.5587 25.8691 37.9185 26.2149 38.348 26.4519C38.7828 26.6665 39.2647 26.7678 39.7491 26.7465C40.2335 26.7252 40.7046 26.582 41.1189 26.3301C41.5332 26.0782 41.8772 25.7257 42.1189 25.3055C42.3607 24.8852 42.4905 24.4107 42.5 23.9259Z" fill="white"></path></svg>