<svg xmlns="http://www.w3.org/2000/svg" width="48" height="48" viewBox="0 0 48 48" fill="none"><path fill-rule="evenodd" clip-rule="evenodd" d="M24 5.5C19.0935 5.5 14.3879 7.4491 10.9185 10.9185C7.4491 14.3879 5.5 19.0935 5.5 24C5.5 28.9065 7.4491 33.6121 10.9185 37.0815C14.3879 40.5509 19.0935 42.5 24 42.5C28.9065 42.5 33.6121 40.5509 37.0815 37.0815C40.5509 33.6121 42.5 28.9065 42.5 24C42.5 19.0935 40.5509 14.3879 37.0815 10.9185C33.6121 7.4491 28.9065 5.5 24 5.5ZM2.5 24C2.5 12.126 12.126 2.5 24 2.5C35.874 2.5 45.5 12.126 45.5 24C45.5 35.874 35.874 45.5 24 45.5C12.126 45.5 2.5 35.874 2.5 24Z" fill="white"></path><path fill-rule="evenodd" clip-rule="evenodd" d="M14.8 17.1C14.9182 16.9424 15.0663 16.8096 15.2358 16.7093C15.4053 16.6089 15.5929 16.5429 15.7879 16.5151C15.9829 16.4872 16.1815 16.498 16.3723 16.5469C16.5631 16.5958 16.7424 16.6818 16.9 16.8L20.9 19.8C21.0863 19.9397 21.2375 20.1209 21.3416 20.3292C21.4458 20.5375 21.5 20.7671 21.5 21C21.5 21.2329 21.4458 21.4625 21.3416 21.6708C21.2375 21.8791 21.0863 22.0603 20.9 22.2L16.9 25.2C16.7424 25.3182 16.5631 25.4042 16.3723 25.4531C16.1815 25.502 15.9829 25.5128 15.7879 25.4849C15.5929 25.4571 15.4053 25.3911 15.2358 25.2907C15.0663 25.1904 14.9182 25.0576 14.8 24.9C14.6818 24.7424 14.5958 24.5631 14.5469 24.3723C14.498 24.1815 14.4872 23.9829 14.5151 23.7879C14.5429 23.5929 14.6089 23.4053 14.7093 23.2358C14.8097 23.0663 14.9424 22.9182 15.1 22.8L17.5 21L15.1 19.2C14.9424 19.0818 14.8097 18.9337 14.7093 18.7642C14.6089 18.5947 14.5429 18.4071 14.5151 18.2121C14.4872 18.0171 14.498 17.8185 14.5469 17.6277C14.5958 17.4369 14.6818 17.2576 14.8 17.1ZM33.2 17.1C33.0818 16.9424 32.9337 16.8096 32.7642 16.7093C32.5947 16.6089 32.4071 16.5429 32.2121 16.5151C32.0171 16.4872 31.8186 16.498 31.6277 16.5469C31.4369 16.5958 31.2576 16.6818 31.1 16.8L27.1 19.8C26.9137 19.9397 26.7625 20.1209 26.6584 20.3292C26.5542 20.5375 26.5 20.7671 26.5 21C26.5 21.2329 26.5542 21.4625 26.6584 21.6708C26.7625 21.8791 26.9137 22.0603 27.1 22.2L31.1 25.2C31.2576 25.3182 31.4369 25.4042 31.6277 25.4531C31.8186 25.502 32.0171 25.5128 32.2121 25.4849C32.4071 25.4571 32.5947 25.3911 32.7642 25.2907C32.9337 25.1904 33.0818 25.0576 33.2 24.9C33.3182 24.7424 33.4042 24.5631 33.4531 24.3723C33.502 24.1815 33.5128 23.9829 33.4849 23.7879C33.4571 23.5929 33.3911 23.4053 33.2907 23.2358C33.1903 23.0663 33.0576 22.9182 32.9 22.8L30.5 21L32.9 19.2C33.2183 18.9613 33.4287 18.606 33.4849 18.2121C33.5412 17.8183 33.4387 17.4183 33.2 17.1ZM31.06 33.06C30.7787 33.3409 30.3975 33.4987 30 33.4987C29.6025 33.4987 29.2213 33.3409 28.94 33.06L28 32.12L27.06 33.06C26.7787 33.3409 26.3975 33.4987 26 33.4987C25.6025 33.4987 25.2213 33.3409 24.94 33.06L24 32.12L23.06 33.06C22.7787 33.3409 22.3975 33.4987 22 33.4987C21.6025 33.4987 21.2213 33.3409 20.94 33.06L20 32.12L19.06 33.06C18.7756 33.325 18.3996 33.4692 18.011 33.4623C17.6224 33.4555 17.2516 33.2981 16.9768 33.0232C16.7019 32.7484 16.5445 32.3776 16.5376 31.989C16.5308 31.6004 16.675 31.2243 16.94 30.94L18.94 28.94C19.2213 28.6591 19.6025 28.5013 20 28.5013C20.3975 28.5013 20.7787 28.6591 21.06 28.94L22 29.88L22.94 28.94C23.2213 28.6591 23.6025 28.5013 24 28.5013C24.3975 28.5013 24.7787 28.6591 25.06 28.94L26 29.88L26.94 28.94C27.2213 28.6591 27.6025 28.5013 28 28.5013C28.3975 28.5013 28.7787 28.6591 29.06 28.94L31.06 30.94C31.3409 31.2213 31.4987 31.6025 31.4987 32C31.4987 32.3975 31.3409 32.7788 31.06 33.06Z" fill="white"></path></svg>