<svg xmlns="http://www.w3.org/2000/svg" width="48" height="48" viewBox="0 0 48 48" fill="none"><path d="M24 33.5C24.3978 33.5 24.7794 33.342 25.0607 33.0607C25.342 32.7794 25.5 32.3978 25.5 32C25.5 31.6022 25.342 31.2206 25.0607 30.9393C24.7794 30.658 24.3978 30.5 24 30.5H20C19.6022 30.5 19.2206 30.658 18.9393 30.9393C18.658 31.2206 18.5 31.6022 18.5 32C18.5 32.3978 18.658 32.7794 18.9393 33.0607C19.2206 33.342 19.6022 33.5 20 33.5H24ZM28 25C28 26.656 27.104 28 26 28C24.896 28 24 26.656 24 25C24 23.344 24.896 22 26 22C27.104 22 28 23.344 28 25ZM18 28C19.104 28 20 26.656 20 25C20 23.344 19.104 22 18 22C16.896 22 16 23.344 16 25C16 26.656 16.896 28 18 28Z" fill="white"></path><path fill-rule="evenodd" clip-rule="evenodd" d="M39.434 4.156C38.562 1.948 35.438 1.948 34.566 4.156L33.32 7.32L30.156 8.566C27.948 9.438 27.948 12.562 30.156 13.434L31.796 14.08L29.558 16.32C26.2951 13.6027 22.1103 12.2479 17.874 12.5374C13.6377 12.8269 9.6761 14.7384 6.81324 17.8744C3.95038 21.0103 2.40668 25.1292 2.50325 29.3743C2.59982 33.6193 4.32922 37.6638 7.33172 40.6663C10.3342 43.6688 14.3787 45.3982 18.6237 45.4947C22.8688 45.5913 26.9877 44.0476 30.1236 41.1848C33.2596 38.3219 35.1711 34.3603 35.4606 30.124C35.7501 25.8877 34.3953 21.7029 31.678 18.44L33.918 16.202L34.566 17.844C35.438 20.052 38.562 20.052 39.434 17.844L40.68 14.68L43.844 13.434C46.052 12.562 46.052 9.438 43.844 8.566L40.68 7.32L39.434 4.156ZM36.048 8.576L37 6.164L37.952 8.576C38.218 9.25 38.752 9.782 39.424 10.048L41.836 11L39.424 11.952C38.75 12.218 38.218 12.752 37.952 13.424L37 15.836L36.048 13.424C35.9173 13.0905 35.7191 12.7876 35.4657 12.5342C35.2124 12.2809 34.9095 12.0827 34.576 11.952L32.164 11L34.576 10.048C35.25 9.782 35.782 9.248 36.048 8.576ZM5.49999 29C5.49999 25.4196 6.92231 21.9858 9.45405 19.4541C11.9858 16.9223 15.4196 15.5 19 15.5C22.5804 15.5 26.0142 16.9223 28.5459 19.4541C31.0777 21.9858 32.5 25.4196 32.5 29C32.5 32.5804 31.0777 36.0142 28.5459 38.5459C26.0142 41.0777 22.5804 42.5 19 42.5C15.4196 42.5 11.9858 41.0777 9.45405 38.5459C6.92231 36.0142 5.49999 32.5804 5.49999 29Z" fill="white"></path></svg>