<svg xmlns="http://www.w3.org/2000/svg" width="48" height="48" viewBox="0 0 48 48" fill="none"><path fill-rule="evenodd" clip-rule="evenodd" d="M24 5.5C19.0935 5.5 14.3879 7.4491 10.9185 10.9185C7.44909 14.3879 5.49999 19.0935 5.49999 24C5.49999 26.962 6.19599 29.758 7.42999 32.236C7.92599 33.232 8.11599 34.42 7.80399 35.59L6.61199 40.04C6.56194 40.2264 6.56184 40.4228 6.61169 40.6093C6.66154 40.7957 6.75959 40.9658 6.89598 41.1024C7.03238 41.239 7.20232 41.3373 7.38874 41.3875C7.57515 41.4376 7.77148 41.4378 7.95799 41.388L12.412 40.196C13.5375 39.9074 14.7298 40.0404 15.764 40.57C18.3222 41.8442 21.142 42.505 24 42.5C28.9065 42.5 33.612 40.5509 37.0815 37.0815C40.5509 33.6121 42.5 28.9065 42.5 24C42.5 19.0935 40.5509 14.3879 37.0815 10.9185C33.612 7.4491 28.9065 5.5 24 5.5ZM2.49999 24C2.49999 12.126 12.126 2.5 24 2.5C35.874 2.5 45.5 12.126 45.5 24C45.5 35.874 35.874 45.5 24 45.5C20.564 45.5 17.312 44.692 14.426 43.256C14.0451 43.0562 13.6052 42.9995 13.186 43.096L8.73399 44.286C5.68599 45.102 2.89799 42.314 3.71399 39.266L4.90599 34.814C5.00253 34.3948 4.94577 33.9549 4.74599 33.574C3.26428 30.6003 2.49531 27.3224 2.49999 24ZM24 14.5C24.3978 14.5 24.7793 14.658 25.0606 14.9393C25.342 15.2206 25.5 15.6022 25.5 16V32C25.5 32.3978 25.342 32.7794 25.0606 33.0607C24.7793 33.342 24.3978 33.5 24 33.5C23.6022 33.5 23.2206 33.342 22.9393 33.0607C22.658 32.7794 22.5 32.3978 22.5 32V16C22.5 15.6022 22.658 15.2206 22.9393 14.9393C23.2206 14.658 23.6022 14.5 24 14.5ZM16 18.5C16.3978 18.5 16.7793 18.658 17.0606 18.9393C17.342 19.2206 17.5 19.6022 17.5 20V28C17.5 28.3978 17.342 28.7794 17.0606 29.0607C16.7793 29.342 16.3978 29.5 16 29.5C15.6022 29.5 15.2206 29.342 14.9393 29.0607C14.658 28.7794 14.5 28.3978 14.5 28V20C14.5 19.6022 14.658 19.2206 14.9393 18.9393C15.2206 18.658 15.6022 18.5 16 18.5ZM32 18.5C32.3978 18.5 32.7793 18.658 33.0607 18.9393C33.342 19.2206 33.5 19.6022 33.5 20V28C33.5 28.3978 33.342 28.7794 33.0607 29.0607C32.7793 29.342 32.3978 29.5 32 29.5C31.6022 29.5 31.2206 29.342 30.9393 29.0607C30.658 28.7794 30.5 28.3978 30.5 28V20C30.5 19.6022 30.658 19.2206 30.9393 18.9393C31.2206 18.658 31.6022 18.5 32 18.5Z" fill="white"></path></svg>