<svg xmlns="http://www.w3.org/2000/svg" width="48" height="48" viewBox="0 0 48 48" fill="none"><path fill-rule="evenodd" clip-rule="evenodd" d="M24 5.5C19.0935 5.5 14.3879 7.4491 10.9185 10.9185C7.4491 14.3879 5.5 19.0935 5.5 24C5.5 28.9065 7.4491 33.6121 10.9185 37.0815C14.3879 40.5509 19.0935 42.5 24 42.5C28.9065 42.5 33.6121 40.5509 37.0815 37.0815C40.5509 33.6121 42.5 28.9065 42.5 24C42.5 19.0935 40.5509 14.3879 37.0815 10.9185C33.6121 7.4491 28.9065 5.5 24 5.5ZM2.5 24C2.5 12.126 12.126 2.5 24 2.5C35.874 2.5 45.5 12.126 45.5 24C45.5 35.874 35.874 45.5 24 45.5C12.126 45.5 2.5 35.874 2.5 24ZM17.106 32.796C19.0968 31.3083 21.5147 30.503 24 30.5C26.57 30.5 28.948 31.354 30.894 32.796C31.0571 32.9115 31.1955 33.0584 31.301 33.2281C31.4065 33.3978 31.4771 33.5868 31.5085 33.7842C31.54 33.9815 31.5317 34.1832 31.4841 34.3773C31.4365 34.5714 31.3506 34.754 31.2315 34.9144C31.1124 35.0749 30.9624 35.2099 30.7903 35.3116C30.6183 35.4132 30.4277 35.4795 30.2297 35.5065C30.0317 35.5334 29.8303 35.5206 29.6373 35.4686C29.4444 35.4167 29.2637 35.3267 29.106 35.204C27.6322 34.1004 25.8412 33.5027 24 33.5C22.1588 33.5027 20.3678 34.1004 18.894 35.204C18.7363 35.3267 18.5556 35.4167 18.3627 35.4686C18.1697 35.5206 17.9683 35.5334 17.7703 35.5065C17.5723 35.4795 17.3817 35.4132 17.2097 35.3116C17.0376 35.2099 16.8876 35.0749 16.7685 34.9144C16.6494 34.754 16.5635 34.5714 16.5159 34.3773C16.4683 34.1832 16.46 33.9815 16.4915 33.7842C16.5229 33.5868 16.5935 33.3978 16.699 33.2281C16.8045 33.0584 16.9429 32.9115 17.106 32.796Z" fill="white"></path><path d="M32 21C32 22.656 31.104 24 30 24C28.896 24 28 22.656 28 21C28 19.344 28.896 18 30 18C31.104 18 32 19.344 32 21ZM20 21C20 22.656 19.104 24 18 24C16.896 24 16 22.656 16 21C16 19.344 16.896 18 18 18C19.104 18 20 19.344 20 21Z" fill="white"></path></svg>