<svg xmlns="http://www.w3.org/2000/svg" width="48" height="48" viewBox="0 0 48 48" fill="none"><path d="M12.01 26.7361C12.068 26.1441 12.53 25.5361 13.286 25.3321C14.044 25.1281 14.746 25.4261 15.092 25.9121C15.3235 26.2356 15.6741 26.454 16.0666 26.5191C16.4591 26.5841 16.8614 26.4906 17.185 26.2591C17.5086 26.0276 17.7269 25.677 17.792 25.2845C17.857 24.8919 17.7635 24.4896 17.532 24.1661C16.432 22.6261 14.428 21.9201 12.51 22.4341C10.592 22.9481 9.20799 24.5621 9.02399 26.4461C9.00495 26.6421 9.02471 26.84 9.08215 27.0285C9.13959 27.2169 9.23358 27.3922 9.35875 27.5443C9.48392 27.6964 9.63783 27.8223 9.81168 27.9149C9.98554 28.0076 10.1759 28.065 10.372 28.0841C10.5681 28.1031 10.766 28.0834 10.9544 28.0259C11.1428 27.9685 11.3181 27.8745 11.4702 27.7493C11.6223 27.6242 11.7482 27.4702 11.8409 27.2964C11.9335 27.1225 11.991 26.9321 12.01 26.7361ZM23.602 23.6301C23.66 23.0381 24.122 22.4301 24.878 22.2261C25.636 22.0221 26.338 22.3201 26.684 22.8041C26.9192 23.1174 27.2676 23.3263 27.6548 23.3861C28.042 23.4459 28.4372 23.3519 28.756 23.124C29.0747 22.8962 29.2916 22.5527 29.3604 22.167C29.4292 21.7813 29.3443 21.384 29.124 21.0601C28.024 19.5201 26.02 18.8141 24.102 19.3281C22.184 19.8421 20.8 21.4541 20.616 23.3401C20.5775 23.7361 20.698 24.1311 20.9508 24.4383C21.2036 24.7454 21.568 24.9396 21.964 24.9781C22.36 25.0165 22.755 24.8961 23.0622 24.6433C23.3694 24.3905 23.5635 24.0261 23.602 23.6301ZM27.296 31.2581C27.6125 31.4946 27.8229 31.8463 27.8815 32.237C27.9401 32.6277 27.8423 33.0258 27.6092 33.3447C27.3761 33.6637 27.0266 33.8778 26.6365 33.9406C26.2465 34.0034 25.8474 33.9098 25.526 33.6801L25.506 33.6681C25.2016 33.4927 24.8755 33.3582 24.536 33.2681C23.814 33.0721 22.676 32.9421 21.164 33.3481C19.652 33.7521 18.734 34.4341 18.204 34.9641C17.955 35.2121 17.7399 35.4918 17.564 35.7961L17.554 35.8161C17.4743 35.9963 17.3599 36.159 17.2173 36.2949C17.0747 36.4309 16.9067 36.5374 16.7229 36.6084C16.5392 36.6795 16.3432 36.7136 16.1462 36.7089C15.9493 36.7042 15.7552 36.6608 15.575 36.5811C15.3948 36.5014 15.2321 36.387 15.0962 36.2444C14.9602 36.1018 14.8537 35.9338 14.7826 35.75C14.7116 35.5663 14.6774 35.3703 14.6821 35.1733C14.6868 34.9764 14.7303 34.7823 14.81 34.6021L14.812 34.6001V34.5961L14.818 34.5881L14.824 34.5721L14.846 34.5261L14.91 34.3981C14.9633 34.2941 15.04 34.1634 15.14 34.0061C15.34 33.6941 15.644 33.2861 16.078 32.8501C16.95 31.9721 18.326 31.0021 20.388 30.4501C22.45 29.8961 24.128 30.0501 25.322 30.3741C25.916 30.5341 26.382 30.7341 26.712 30.9061C26.8882 30.9982 27.0598 31.099 27.226 31.2081L27.266 31.2381L27.284 31.2481L27.29 31.2541L27.296 31.2581Z" fill="white"></path><path fill-rule="evenodd" clip-rule="evenodd" d="M26.506 4.50008L26.586 4.54008C28.922 5.63408 29.972 6.12208 31.058 6.46608C31.4447 6.58875 31.8333 6.69808 32.224 6.79408C33.328 7.06208 34.468 7.18808 37.014 7.46208L37.104 7.47008C38.72 7.64408 40.064 7.79008 41.124 8.03008C42.232 8.28408 43.232 8.68608 44.02 9.51608C44.48 9.99608 44.848 10.5581 45.112 11.1701C45.562 12.2101 45.564 13.2981 45.4 14.4501C45.24 15.5581 44.894 16.9141 44.472 18.5621L42.76 25.2401C41.328 30.8261 37.694 33.9301 34.046 35.6181C32.596 38.7661 30.32 41.1781 28.438 42.7841L28.396 42.8201C27.896 43.2481 27.402 43.6701 26.756 44.0401C26.086 44.4221 25.308 44.7201 24.218 45.0261C23.128 45.3321 22.312 45.4801 21.542 45.4981C20.802 45.5161 20.168 45.4081 19.53 45.2981L19.474 45.2901C14.832 44.5021 7.44999 41.8621 5.23999 33.2401L3.52799 26.5601C3.10799 24.9141 2.75999 23.5601 2.59999 22.4481C2.43599 21.2981 2.43799 20.2121 2.88799 19.1701C3.15199 18.5581 3.52199 17.9981 3.97999 17.5161C4.76799 16.6861 5.76799 16.2841 6.87599 16.0321C7.93599 15.7881 9.27799 15.6441 10.896 15.4721L10.986 15.4621C12.026 15.3501 12.828 15.2621 13.492 15.1821L14.742 10.3021C15.164 8.65408 15.512 7.30008 15.906 6.25408C16.312 5.17408 16.838 4.22008 17.746 3.53808C18.276 3.13808 18.876 2.84208 19.514 2.66008C20.614 2.34808 21.682 2.52808 22.758 2.88608C23.79 3.23008 25.022 3.80408 26.506 4.50008ZM39.854 24.4961C39.03 27.7121 37.334 29.8981 35.328 31.3961C35.6429 29.2557 35.5204 27.0738 34.968 24.9821L33.108 17.7181C33.3797 17.6122 33.6146 17.4294 33.784 17.1921C34.13 16.7081 34.834 16.4121 35.592 16.6141C36.348 16.8161 36.808 17.4261 36.866 18.0181C36.9045 18.414 37.0986 18.7785 37.4058 19.0313C37.713 19.2841 38.108 19.4045 38.504 19.3661C38.9 19.3276 39.2644 19.1334 39.5172 18.8263C39.77 18.5191 39.8905 18.1241 39.852 17.7281C39.67 15.8441 38.286 14.2301 36.368 13.7161C35.6564 13.5208 34.9091 13.4943 34.1855 13.6387C33.4619 13.7832 32.782 14.0946 32.2 14.5481L32.094 14.2561C31.688 13.1761 31.162 12.2221 30.254 11.5401C29.7236 11.1413 29.1243 10.8436 28.486 10.6621C27.446 10.3681 26.434 10.5121 25.42 10.8321C25.2097 10.7459 24.9947 10.6718 24.776 10.6101C22.856 10.0961 20.852 10.8021 19.752 12.3421C19.5253 12.6587 19.4307 13.051 19.488 13.4361C18.388 13.9401 17.672 14.2361 16.942 14.4681L16.758 14.5281L17.626 11.1341C18.076 9.38008 18.386 8.18608 18.712 7.31408C19.034 6.45808 19.304 6.12208 19.546 5.94008C19.786 5.76008 20.054 5.62808 20.332 5.54808C20.598 5.47208 20.99 5.46208 21.812 5.73608C22.656 6.01608 23.728 6.51608 25.316 7.26008L25.422 7.31008C27.622 8.34008 28.856 8.91808 30.15 9.33008C30.6007 9.47141 31.0553 9.59808 31.514 9.71008C32.834 10.0301 34.178 10.1761 36.576 10.4341L36.694 10.4461C38.424 10.6321 39.59 10.7601 40.454 10.9581C41.29 11.1481 41.636 11.3641 41.846 11.5841C42.0593 11.8081 42.23 12.0681 42.358 12.3641C42.492 12.6721 42.56 13.1181 42.43 14.0241C42.298 14.9541 41.992 16.1501 41.544 17.9021L39.854 24.4961ZM26.19 13.7361C25.344 14.0161 24.272 14.5161 22.684 15.2601L22.578 15.3101C20.378 16.3401 19.144 16.9181 17.85 17.3301C17.3993 17.4714 16.9447 17.5981 16.486 17.7101C15.166 18.0301 13.822 18.1761 11.424 18.4341L11.306 18.4461C9.57599 18.6321 8.40999 18.7601 7.54599 18.9581C6.70999 19.1481 6.36399 19.3641 6.15399 19.5841C5.93769 19.8111 5.76423 20.0753 5.64199 20.3641C5.50799 20.6721 5.43999 21.1181 5.56999 22.0241C5.70199 22.9541 6.00799 24.1501 6.45599 25.9021L8.14599 32.4961C9.90999 39.3761 15.742 41.6161 19.978 42.3361C20.674 42.4541 21.042 42.5121 21.47 42.5001C21.89 42.4901 22.442 42.4101 23.41 42.1401C24.376 41.8681 24.894 41.6501 25.268 41.4361C25.648 41.2181 25.944 40.9721 26.49 40.5061C29.83 37.6561 33.834 32.6341 32.064 25.7261L30.374 19.1341C29.924 17.3801 29.614 16.1861 29.288 15.3141C28.966 14.4581 28.696 14.1221 28.454 13.9401C28.2183 13.7622 27.9519 13.6293 27.668 13.5481C27.402 13.4721 27.01 13.4621 26.188 13.7361" fill="white"></path></svg>