<svg xmlns="http://www.w3.org/2000/svg" width="48" height="48" viewBox="0 0 48 48" fill="none"><path fill-rule="evenodd" clip-rule="evenodd" d="M7.412 2.62006C7.59322 2.54284 7.78788 2.50207 7.98486 2.50008C8.18184 2.49809 8.37729 2.53491 8.56004 2.60846C8.74278 2.682 8.90926 2.79082 9.04994 2.92871C9.19063 3.06659 9.30279 3.23083 9.38 3.41206V3.41606L9.384 3.42206L9.394 3.44606L9.43 3.53206L9.564 3.85806C10.2626 5.62052 10.8871 7.41142 11.436 9.22606C12.45 12.5901 13.5 17.0421 13.5 21.1441C13.5 22.3441 13.326 23.4561 13.034 24.5001H34.966C34.6578 23.408 34.501 22.2788 34.5 21.1441C34.5 17.0421 35.55 12.5901 36.564 9.22606C37.1129 7.41142 37.7374 5.62052 38.436 3.85806L38.57 3.53206L38.606 3.44606L38.616 3.42206L38.618 3.41606C38.618 3.41606 38.62 3.41206 40 4.00006L38.62 3.41406C38.7812 3.05647 39.0761 2.77626 39.4415 2.63349C39.8069 2.49072 40.2136 2.49675 40.5746 2.65029C40.9355 2.80384 41.222 3.09267 41.3725 3.45489C41.5231 3.81711 41.5258 4.22389 41.38 4.58806V4.59206L41.37 4.61006L41.34 4.68206L41.22 4.97806C40.5534 6.65679 39.9582 8.36299 39.436 10.0921C38.45 13.3581 37.5 17.4801 37.5 21.1441C37.5 23.2621 38.216 25.0781 39.312 27.0561C39.69 27.7361 40.132 28.4641 40.6 29.2361C41.628 30.9261 42.786 32.8321 43.672 34.9241C44.74 37.4421 45.5 40.3701 45.5 44.0001C45.5 44.3979 45.342 44.7794 45.0607 45.0607C44.7794 45.342 44.3978 45.5001 44 45.5001C43.6022 45.5001 43.2206 45.342 42.9393 45.0607C42.658 44.7794 42.5 44.3979 42.5 44.0001C42.5 41.0201 41.92 38.6101 41.082 36.5121C30.294 36.8061 26.162 42.2541 25.422 44.4741C25.322 44.772 25.1309 45.031 24.8758 45.2145C24.6206 45.3979 24.3143 45.4967 24 45.4967C23.6857 45.4967 23.3794 45.3979 23.1242 45.2145C22.8691 45.031 22.678 44.772 22.578 44.4741C21.838 42.2541 17.706 36.8061 6.918 36.5141C5.96516 38.8941 5.48358 41.4365 5.5 44.0001C5.5 44.3979 5.34196 44.7794 5.06066 45.0607C4.77936 45.342 4.39782 45.5001 4 45.5001C3.60218 45.5001 3.22064 45.342 2.93934 45.0607C2.65804 44.7794 2.5 44.3979 2.5 44.0001C2.5 40.3701 3.26 37.4401 4.328 34.9241C5.214 32.8321 6.372 30.9261 7.4 29.2361C7.868 28.4641 8.312 27.7361 8.688 27.0561C9.784 25.0781 10.5 23.2601 10.5 21.1441C10.5 17.4801 9.55 13.3581 8.564 10.0921C8.04171 8.36366 7.44651 6.65813 6.78 4.98006L6.66 4.68406L6.628 4.61206L6.622 4.59406C6.54441 4.41285 6.50329 4.21613 6.50101 4.01902C6.49872 3.82191 6.53531 3.62628 6.60868 3.44332C6.68205 3.26036 6.79076 3.09366 6.9286 2.95274C7.06644 2.81182 7.2307 2.69945 7.412 2.62206M8.322 33.5781C16.742 34.1361 21.662 37.6861 24 40.8781C26.34 37.6861 31.256 34.1361 39.678 33.5781C39.198 32.7081 38.696 31.8861 38.19 31.0561C37.6715 30.2187 37.1707 29.3705 36.688 28.5121C36.5017 28.1765 36.3223 27.837 36.15 27.4941L36 27.5001H12L11.85 27.4921C11.6777 27.835 11.4983 28.1745 11.312 28.5101C10.82 29.3981 10.312 30.2301 9.812 31.0521C9.304 31.8841 8.802 32.7081 8.322 33.5781Z" fill="white"></path></svg>